<svg width="18" height="18" viewBox="0 0 18 18" fill="none" xmlns="http://www.w3.org/2000/svg">
<rect width="18" height="18" fill="white"/>
<path d="M16.8158 7.0425C16.6836 6.6465 16.3495 6.36244 15.9445 6.30056L11.8332 5.68462L9.98257 1.75612C9.79864 1.36688 9.42232 1.125 8.99989 1.125C8.57745 1.125 8.20114 1.36688 8.0172 1.75612L6.19357 5.67056L2.05526 6.30056C1.65026 6.36244 1.3167 6.6465 1.18395 7.0425C1.04839 7.44919 1.14851 7.89019 1.44551 8.19337L4.43857 11.2567L3.73151 15.5745C3.6612 16.0059 3.83557 16.4284 4.1877 16.6764C4.52632 16.9166 4.9617 16.9402 5.32395 16.7406L8.97401 14.7021L12.6758 16.7406C13.0392 16.9402 13.4734 16.9155 13.8121 16.6764C14.1642 16.4284 14.3391 16.0059 14.2683 15.5745L13.5601 11.2511L16.5543 8.19337C16.8513 7.89019 16.9514 7.44919 16.8158 7.0425Z" fill="#E2C93A"/>
</svg>
