<svg width="32" height="32" viewBox="0 0 32 32" fill="none" xmlns="http://www.w3.org/2000/svg">
<rect width="32" height="32" fill="white"/>
<path d="M29.895 12.52C29.66 11.816 29.066 11.311 28.346 11.201L21.037 10.106L17.747 3.122C17.42 2.43 16.751 2 16 2C15.249 2 14.58 2.43 14.253 3.122L11.011 10.081L3.654 11.201C2.934 11.311 2.341 11.816 2.105 12.52C1.864 13.243 2.042 14.027 2.57 14.566L7.891 20.012L6.634 27.688C6.509 28.455 6.819 29.206 7.445 29.647C8.047 30.074 8.821 30.116 9.465 29.761L15.954 26.137L22.535 29.761C23.181 30.116 23.953 30.072 24.555 29.647C25.181 29.206 25.492 28.455 25.366 27.688L24.107 20.002L29.43 14.566C29.958 14.027 30.136 13.243 29.895 12.52Z" fill="#E2C93A"/>
</svg>
